<svg xmlns="http://www.w3.org/2000/svg" width="24" height="24" viewBox="0 0 24 24" fill="none"><g clip-path="url(#clip0_120_20684)"><path d="M11.9998 3C14.3138 3 16.4558 3.408 18.0578 4.109C18.8568 4.459 19.5668 4.901 20.0898 5.443C20.5748 5.943 20.9348 6.571 20.9918 7.299L20.9998 7.5V17.5C20.9998 18.314 20.6188 19.01 20.0898 19.557C19.5668 20.099 18.8568 20.541 18.0578 20.891C16.4558 21.591 14.3138 22 11.9998 22C9.68582 22 7.54382 21.592 5.94182 20.891C5.14282 20.541 4.43282 20.099 3.90982 19.557C3.42482 19.057 3.06482 18.429 3.00782 17.701L2.99982 17.5V7.5C2.99982 6.686 3.38082 5.99 3.90982 5.443C4.43282 4.901 5.14282 4.459 5.94182 4.109C7.54382 3.409 9.68582 3 11.9998 3ZM18.9998 15.407C18.6967 15.5886 18.382 15.7503 18.0578 15.891C16.4558 16.591 14.3138 17 11.9998 17C9.68582 17 7.54382 16.592 5.94182 15.891C5.61762 15.7503 5.30295 15.5887 4.99982 15.407V17.5C4.99982 17.652 5.06582 17.876 5.34782 18.167C5.63382 18.463 6.09582 18.775 6.74382 19.059C8.03782 19.625 9.89482 20 11.9998 20C14.1048 20 15.9618 19.625 17.2558 19.059C17.9038 18.775 18.3658 18.463 18.6518 18.167C18.9338 17.877 18.9998 17.652 18.9998 17.5V15.407ZM18.9998 10.407C18.6967 10.5886 18.382 10.7503 18.0578 10.891C16.4558 11.591 14.3138 12 11.9998 12C9.68582 12 7.54382 11.592 5.94182 10.891C5.61762 10.7503 5.30295 10.5887 4.99982 10.407V12.5C4.99982 12.652 5.06582 12.876 5.34782 13.167C5.63382 13.463 6.09582 13.775 6.74382 14.059C8.03782 14.625 9.89482 15 11.9998 15C14.1048 15 15.9618 14.625 17.2558 14.059C17.9038 13.775 18.3658 13.463 18.6518 13.167C18.9338 12.877 18.9998 12.652 18.9998 12.5V10.407ZM11.9998 5C9.89482 5 8.03782 5.375 6.74382 5.941C6.09582 6.225 5.63382 6.537 5.34782 6.833C5.06582 7.123 4.99982 7.348 4.99982 7.5C4.99982 7.652 5.06582 7.876 5.34782 8.167C5.63382 8.463 6.09582 8.775 6.74382 9.059C8.03782 9.625 9.89482 10 11.9998 10C14.1048 10 15.9618 9.625 17.2558 9.059C17.9038 8.775 18.3658 8.463 18.6518 8.167C18.9338 7.877 18.9998 7.652 18.9998 7.5C18.9998 7.348 18.9338 7.124 18.6518 6.833C18.3658 6.537 17.9038 6.225 17.2558 5.941C15.9618 5.375 14.1048 5 11.9998 5Z" fill="white"/></g><defs><clipPath id="clip0_120_20684"><rect width="24" height="24" fill="white"/></clipPath></defs></svg>