<svg width="96" height="32" viewBox="0 0 96 32" fill="none" xmlns="http://www.w3.org/2000/svg">
  <g id="Group 6">
    <path
      id="image 12 (Traced)"
      fill-rule="evenodd"
      clip-rule="evenodd"
      d="M46.873 0.333749C45.5559 0.808307 44.7261 1.33811 43.9957 2.17108C42.3921 3.99956 42.5322 6.02506 44.3469 7.24944C45.6864 8.15312 48.4935 8.30905 52.1584 7.68309C53.4207 7.4674 54.4919 7.36823 54.5823 7.45872C54.6727 7.54922 54.0017 10.7403 53.0637 14.6799C51.1609 22.6725 50.1072 27.3777 49.9417 28.6204C49.7988 29.6951 50.2456 30.6269 51.1569 31.154C51.6599 31.445 52.1592 31.5334 53.3226 31.5375C54.1736 31.5405 54.8814 30.8829 54.942 30.033L54.9642 29.7207C55.1231 27.4918 55.6344 24.5919 56.7209 19.759C58.1103 13.5773 59.9568 6.16514 60.1571 5.96454C60.5419 5.57935 64.6017 5.01278 67.1726 4.98544C69.6882 4.95886 69.7327 4.96564 70.9622 5.57124C71.6464 5.90816 72.2908 6.184 72.3944 6.184C72.9264 6.184 72.827 3.76181 72.2473 2.60171C71.8213 1.74913 71.4161 1.39354 70.2698 0.866378C69.4368 0.483262 69.0485 0.436881 66.6986 0.439897C63.6303 0.443857 63.0661 0.532282 55.6819 2.16373C52.6264 2.8389 49.6603 3.42997 49.0907 3.47711C47.0253 3.64849 46.4131 2.64281 47.7609 1.29342C49.0445 0.00832632 48.7274 -0.334442 46.873 0.333749ZM67.2636 13.1883C66.9529 13.2897 66.1365 13.4413 65.4495 13.5249C64.7625 13.6086 63.8045 13.8752 63.3207 14.1171C60.7313 15.4118 58.8903 19.3036 59.1278 22.981C59.2882 25.4659 60.5157 27.3359 62.6268 28.3108C63.3102 28.6264 63.8612 28.713 65.1921 28.7137C66.7143 28.7145 67.0184 28.6523 68.1775 28.1027C68.8873 27.7661 69.5461 27.5391 69.6413 27.5981C70.0543 27.8536 72.5769 27.2608 73.6957 26.6453C74.8993 25.9831 75.0789 25.9782 75.0789 26.6072C75.0789 27.6607 76.9243 28.9083 78.2872 28.776C78.9024 28.7162 78.9344 28.6696 79.5327 26.9577C81.5212 21.2686 85.8034 14.7881 86.6588 16.1737C86.7217 16.2757 86.4936 17.4422 86.152 18.7661C85.6034 20.8914 85.5307 21.4615 85.5307 23.6388C85.5307 26.05 85.5433 26.1249 86.0957 27.018C87.2414 28.8702 89.5382 29.3648 91.7814 28.2426C93.1285 27.5687 94.7895 25.8994 95.4899 24.5157C96.5217 22.4772 95.8445 21.026 94.7437 22.917C93.9426 24.2936 93.2146 25.1252 92.4191 25.5728C91.4698 26.107 90.9875 26.0877 90.3918 25.4914C89.9171 25.0161 89.9063 24.9525 90.0158 23.276C90.0798 22.2973 90.3766 20.621 90.7014 19.4038C91.6078 16.0085 91.451 14.4693 90.1003 13.5049C89.5723 13.1278 89.2593 13.0658 87.8847 13.0658C86.6955 13.0658 86.1006 13.157 85.5704 13.4208C84.6516 13.8776 83.1221 15.2557 82.6067 16.0907C82.3854 16.4491 82.1315 16.7423 82.0424 16.7423C81.9532 16.7423 81.9266 16.1697 81.9833 15.4697C82.0837 14.2308 82.0707 14.1821 81.4954 13.6372C80.9818 13.1508 80.7346 13.0678 79.6097 13.0041C78.4947 12.9411 78.2903 12.9794 78.1348 13.2811C78.0355 13.4738 77.5523 15.3707 77.0608 17.4965C76.5693 19.6223 75.9928 21.6585 75.7798 22.0215C74.661 23.9274 73.2963 25.0381 72.0733 25.0381C71.4069 25.0381 71.3643 24.8326 71.8633 24.0234C72.4012 23.1512 73.1522 20.7652 73.2948 19.4762C73.526 17.385 72.8872 15.1429 71.7536 14.0656C70.6997 13.0642 68.7879 12.6907 67.2636 13.1883ZM69.8815 16.238C70.2146 16.6869 70.2749 17.0276 70.2643 18.4062C70.2536 19.7922 70.1575 20.2809 69.6346 21.6076C68.8867 23.5045 68.6009 23.5577 67.9295 21.9246C67.564 21.0361 67.4638 20.4551 67.4585 19.1933C67.451 17.3534 67.5672 16.8175 68.1288 16.1026C68.641 15.4506 69.3372 15.5045 69.8815 16.238ZM64.1339 21.0414C64.3286 22.0318 65.2974 24.2591 65.8906 25.08C66.2229 25.5402 65.8437 25.8786 65.1817 25.7124C64.0091 25.4177 63.2168 24.0057 63.2168 22.21C63.2168 21.2481 63.5313 19.9475 63.764 19.9475C63.8492 19.9475 64.0156 20.4398 64.1339 21.0414Z"
      fill="url(#paint0_linear_2667_3306)"
    />
    <path
      id="Union"
      fill-rule="evenodd"
      clip-rule="evenodd"
      d="M11.7987 1.45799C14.8997 0.901521 19.3959 0.364252 22.3031 0.202774C23.0909 0.159063 23.831 0.138586 23.9477 0.157365C24.0645 0.176144 24.3829 0.192165 24.6554 0.192907C25.0765 0.19418 25.1989 0.246061 25.4727 0.539204C26.3421 1.4703 26.6534 1.82731 26.6534 1.8933C26.6534 1.93309 26.7489 2.07568 26.8656 2.21021C27.1447 2.532 27.1333 2.76446 26.8204 3.13643C26.5822 3.41949 26.4733 3.45302 25.3615 3.58542C24.7007 3.66404 23.8257 3.7486 23.4172 3.77332C23.3929 3.77478 23.3687 3.77639 23.3447 3.77813C22.8313 3.81518 22.3063 3.9756 21.7944 4.02935C21.3314 4.07797 21.0289 4.10974 20.8101 4.42391C20.5746 4.76214 20.5554 5.19981 20.5189 5.61052C20.4822 6.02344 20.4342 6.54978 20.3714 7.22067C20.3476 7.4744 20.3259 7.71235 20.3052 7.9386C20.0804 10.4023 19.9821 11.4797 18.7456 16.4592C16.8048 24.2742 15.6545 27.0183 13.353 29.3222C12.1996 30.4772 10.2943 31.4929 8.63466 31.8379C7.10437 32.156 4.37372 31.9854 3.30537 31.505C2.0683 30.9488 0.996751 29.9073 0.481129 28.76C-0.141647 27.3742 -0.164058 24.558 0.438569 23.4352C0.971139 22.4435 1.53177 21.9399 2.66 21.4403C3.74134 20.9614 5.84186 20.7266 6.04845 21.0615C6.12284 21.182 5.92755 21.6805 5.61437 22.1694C4.01873 24.6602 3.53174 26.8991 4.23813 28.4977C5.20873 30.6946 7.82507 30.1878 9.87174 27.4065C11.5224 25.1638 12.4436 22.7948 13.8511 17.1749C15.0583 12.3549 15.5217 8.7192 15.6971 6.48622L15.6826 5.71848C15.6766 5.39652 15.4034 5.14423 15.0846 5.18732C14.7841 5.22796 14.4852 5.28159 14.1861 5.33664C13.6609 5.43329 13.0401 5.53631 12.8067 5.56549C12.5733 5.59477 12.3107 5.64846 12.2231 5.68474C12.1356 5.72103 11.7297 5.81492 11.3212 5.89332C10.2391 6.10106 9.66006 6.21968 9.34535 6.29808C8.73206 6.45107 7.76492 5.54385 7.0937 4.18571C6.57039 3.12709 6.58874 2.77061 7.18144 2.48139C7.41392 2.36798 7.7959 2.23928 8.03028 2.19546C8.26467 2.15154 8.67127 2.06401 8.93388 2.00078C9.19649 1.93744 9.8172 1.8131 10.3132 1.72419C10.8093 1.63538 11.4777 1.5156 11.7987 1.45799ZM37.7752 5.24099C38.0268 4.06845 38.323 3.16514 38.5021 3.02562C39.1581 2.51449 41.1411 2.90138 41.8631 3.68118C42.3535 4.21098 42.4399 5.11579 42.1286 6.46009C41.9239 7.3436 42.1267 7.69014 42.8516 7.69617C43.6069 7.70239 44.8103 8.32307 45.3787 8.99937C45.7619 9.45526 45.8888 9.8101 45.8888 10.4246C45.8888 11.3378 45.7029 11.4855 44.8544 11.2453C43.9651 10.9936 41.2573 11.0477 41.0386 11.3214C40.8462 11.562 39.1061 18.6951 38.623 21.2231C37.9036 24.9873 38.6737 26.5905 40.7239 25.5967C41.5932 25.1753 42.2409 24.4616 43.2497 22.8129C43.9587 21.6543 44.4412 21.5617 44.5372 22.5659C44.686 24.12 42.3774 27.2324 40.3179 28.2542C39.5676 28.6263 39.1031 28.7136 37.8714 28.714C36.5492 28.7144 36.2547 28.6505 35.6116 28.2244C34.8672 27.7311 34.6589 27.4334 34.1297 26.1052C33.989 25.7518 33.5415 25.6439 33.2555 25.8944L32.8617 26.2392C29.6895 29.0176 25.5472 29.5841 22.5116 27.655C20.942 26.6576 20.0943 25.0126 19.9484 22.6811C19.7143 18.9398 21.9118 14.969 25.0641 13.4373C26.5033 12.7381 29.0385 12.553 30.3435 13.0521C32.0156 13.6914 33.2817 15.7173 32.9881 17.2841C32.4627 20.0881 28.8718 22.7753 25.6504 22.7753C24.6508 22.7753 24.6086 22.7955 24.6086 23.2716C24.6086 24.6964 26.1752 25.792 28.2127 25.792C29.8335 25.792 30.9094 25.3993 32.2553 24.3161C33.6133 23.2235 33.9069 22.6426 34.3208 20.23C34.4988 19.193 35.0067 16.8197 35.4494 14.9558C35.8924 13.092 36.214 11.5011 36.1643 11.4206C36.1146 11.3401 35.7187 11.2737 35.2847 11.2732C34.0892 11.2717 33.118 10.9346 32.3962 10.2707C31.6591 9.5929 31.3098 8.48823 31.5951 7.73727C31.7608 7.30099 31.8382 7.27554 32.6638 7.38527C35.0438 7.70202 36.9496 7.74274 37.1504 7.48142C37.2605 7.33794 37.5419 6.32981 37.7752 5.24099ZM25.4596 20.5438C27.6353 20.2985 30.2326 17.6909 29.6995 16.2871C29.5452 15.8811 29.3951 15.7995 28.8034 15.8001C27.5115 15.8014 26.2118 16.966 25.2626 18.9726C24.6564 20.2547 24.7033 20.629 25.4596 20.5438Z"
      fill="white"
    />
  </g>
  <defs>
    <linearGradient
      id="paint0_linear_2667_3306"
      x1="42.6667"
      y1="-5.33333"
      x2="100.666"
      y2="29.9993"
      gradientUnits="userSpaceOnUse"
    >
      <stop stop-color="#6B40EA" />
      <stop offset="1" stop-color="#018FDC" />
    </linearGradient>
  </defs>
</svg>
