<svg xmlns="http://www.w3.org/2000/svg" width="64" height="65" viewBox="0 0 64 65" fill="none" class="sc-cKZHtR kEcZXD"><path d="M16.625 55.5002C15.8575 55.4988 15.1036 55.2976 14.4375 54.9165C12.9375 54.0665 12.005 52.4165 12.005 50.6252V14.3752C12.005 12.579 12.9375 10.934 14.4375 10.084C15.1195 9.69202 15.8943 9.49045 16.6808 9.50035C17.4674 9.51024 18.2368 9.73123 18.9088 10.1402L49.89 28.6852C50.5357 29.0901 51.068 29.6523 51.4369 30.3191C51.8059 30.986 51.9994 31.7356 51.9994 32.4977C51.9994 33.2598 51.8059 34.0095 51.4369 34.6763C51.068 35.3431 50.5357 35.9054 49.89 36.3102L18.9038 54.8602C18.2161 55.2759 17.4285 55.4971 16.625 55.5002Z" fill="white"/></svg>