<svg xmlns="http://www.w3.org/2000/svg" width="24" height="24" viewBox="0 0 24 24" fill="none"><path d="M18.0001 12.998H13.0001V17.998C13.0001 18.2633 12.8947 18.5176 12.7072 18.7052C12.5196 18.8927 12.2653 18.998 12.0001 18.998C11.7348 18.998 11.4805 18.8927 11.293 18.7052C11.1054 18.5176 11.0001 18.2633 11.0001 17.998V12.998H6.00006C5.73484 12.998 5.48049 12.8927 5.29295 12.7052C5.10542 12.5176 5.00006 12.2633 5.00006 11.998C5.00006 11.7328 5.10542 11.4785 5.29295 11.2909C5.48049 11.1034 5.73484 10.998 6.00006 10.998H11.0001V5.99805C11.0001 5.73283 11.1054 5.47848 11.293 5.29094C11.4805 5.1034 11.7348 4.99805 12.0001 4.99805C12.2653 4.99805 12.5196 5.1034 12.7072 5.29094C12.8947 5.47848 13.0001 5.73283 13.0001 5.99805V10.998H18.0001C18.2653 10.998 18.5196 11.1034 18.7072 11.2909C18.8947 11.4785 19.0001 11.7328 19.0001 11.998C19.0001 12.2633 18.8947 12.5176 18.7072 12.7052C18.5196 12.8927 18.2653 12.998 18.0001 12.998Z" fill="white"/></svg>