<svg xmlns="http://www.w3.org/2000/svg" xmlns:xlink="http://www.w3.org/1999/xlink" version="1.1" x="0px" y="0px" viewBox="0 0 256 256" enable-background="new 0 0 256 256" xml:space="preserve">
<metadata> Svg Vector Icons : http://www.onlinewebfonts.com/icon </metadata>
<g><g><g><path stroke-width="2" fill-opacity="0" stroke="#000000" d="M116.9,10.4C76.4,14.5,40.6,39,22.4,75.2c-5.6,11.2-9.2,22.5-11.1,35.1c-1.8,11.2-1.2,14.7,3,16.6c1.8,0.9,2.8,1,10.7,1c7.5,0,9-0.1,10.6-0.9c2.7-1.2,3.8-3.3,4.4-8.2c4.2-38.1,31.9-69,69.2-77.3c25.2-5.6,51.2,0.1,72,15.8l4,3L171.6,74c-14.6,14.7-14.7,14.7-13.9,18.7c0.4,2.2,2.7,4.7,4.8,5.3c1.2,0.4,14.1,0.5,40.3,0.4l38.5-0.1l1.7-1.3c3.2-2.4,3-0.3,3-42.7c0-41.9,0.1-40.2-2.7-42.6c-1.7-1.4-3.9-1.9-6.4-1.5c-1.5,0.3-3.7,2.2-16.3,14.8L206,39.5l-4.1-3.3c-16.6-13.4-35.8-21.8-57.4-25.1C138.7,10.2,123,9.8,116.9,10.4z"/><path stroke-width="2" fill-opacity="0" stroke="#000000" d="M221.1,128.3c-1.5,0.6-3.3,2.1-4,3.5c-0.4,0.8-1,3.7-1.4,6.5c-2.7,21.1-11.8,39-27.2,53.8c-12.9,12.3-27.8,19.9-45.8,23.1c-7.1,1.3-22,1.4-28.6,0.2c-15.6-2.9-27.9-8.2-40-17.3l-3.4-2.5l13.6-13.6c14.7-14.7,14.7-14.8,14-18.7c-0.4-2.2-2.7-4.7-4.8-5.3c-1.2-0.4-14.1-0.5-40.3-0.4c-38.1,0.1-38.6,0.1-39.8,1.1c-0.7,0.5-1.7,1.5-2.2,2.2c-1,1.2-1,1.7-1.1,39.8c-0.1,26.2,0,39.1,0.4,40.3c0.6,2.1,3.1,4.4,5.3,4.8c4,0.7,4,0.7,19.6-14.8l14.5-14.5l3.7,3c9.1,7.5,24.3,16,35.3,19.8c25.1,8.7,51.8,8.8,76.6,0.5c27.6-9.3,51.4-29.2,65.8-55.1c7-12.6,11.7-27.1,13.6-41.7c1-7.6,0.9-9.5-0.3-11.4c-2.3-3.4-2.6-3.5-13.2-3.5C226.1,128,221.5,128.1,221.1,128.3z"/></g></g></g>
</svg>