<?xml version="1.0" encoding="UTF-8"?>
<svg version="1.1" xmlns="http://www.w3.org/2000/svg" width="128" height="128">
<path d="M0 0 C3.27601085 2.77165966 6.33969629 5.62478263 9 9 C9 9.66 9 10.32 9 11 C9.66 11 10.32 11 11 11 C19.15932929 19.62627886 24.07776709 35.31632097 24.0546875 47.03125 C23.46988287 66.06823574 16.88073867 81.65831915 3 95 C-12.24815032 107.68211855 -28.7496417 110.44739536 -48 109 C-52.64211001 108.18947286 -56.70162226 106.91304712 -61 105 C-61.93714844 104.5875 -62.87429687 104.175 -63.83984375 103.75 C-77.63105509 96.94143564 -88.82325334 85.09135173 -93.9375 70.5625 C-98.76844991 55.90588924 -99.22088734 39.33786706 -93 25 C-92.66484375 24.22527344 -92.3296875 23.45054688 -91.984375 22.65234375 C-90.03862007 18.52147515 -87.73905723 14.65207631 -85 11 C-84.34 11 -83.68 11 -83 11 C-82.75636719 10.42894531 -82.51273438 9.85789062 -82.26171875 9.26953125 C-76.36160667 -1.34336386 -63.26604262 -6.76256772 -52.20703125 -10.16796875 C-33.98651657 -14.39049373 -15.39756118 -10.18577406 0 0 Z M-54 18 C-54.33 29.55 -54.66 41.1 -55 53 C-58.465 53.495 -58.465 53.495 -62 54 C-61.67 54.99 -61.34 55.98 -61 57 C-58.03 56.505 -58.03 56.505 -55 56 C-55 58.64 -55 61.28 -55 64 C-58.465 64.495 -58.465 64.495 -62 65 C-62 65.99 -62 66.98 -62 68 C-59.69 68.33 -57.38 68.66 -55 69 C-54.67 72.63 -54.34 76.26 -54 80 C-53.34 80 -52.68 80 -52 80 C-51.67 76.37 -51.34 72.74 -51 69 C-44.565 68.505 -44.565 68.505 -38 68 C-38 67.34 -38 66.68 -38 66 C-39.79090253 65.80533668 -41.58276505 65.61948787 -43.375 65.4375 C-44.37273438 65.33308594 -45.37046875 65.22867188 -46.3984375 65.12109375 C-48.984037 64.78855292 -48.984037 64.78855292 -51 66 C-51 62.7 -51 59.4 -51 56 C-50.0409375 56.2475 -50.0409375 56.2475 -49.0625 56.5 C-40.95295062 57.82400806 -30.67957572 58.01589539 -23.59375 53.44921875 C-19.14786799 49.68793813 -16.32279809 46.75907419 -15.62890625 40.828125 C-15.50824414 34.32656637 -15.51688329 29.1858944 -19.125 23.6484375 C-26.08499017 17.52944614 -33.05010556 17.48552875 -42 17.75 C-45.96 17.8325 -49.92 17.915 -54 18 Z " fill="#FDFDFD" transform="translate(101,15)"/>
<path d="M0 0 C9.1343258 0.04964308 15.73741416 0.36187254 22.6875 6.65234375 C25.35297034 9.7699921 25.19139662 13.14584099 25.25 17.0625 C25.27578125 18.09117188 25.3015625 19.11984375 25.328125 20.1796875 C24.83805758 24.6719722 22.95599345 27.23150655 19.8125 30.375 C11.75926867 35.56486019 2.19404761 34.38834085 -7 34.1875 C-8.15350402 30.72698793 -8.12947911 28.01629843 -8.1328125 24.3671875 C-8.13376923 23.70792267 -8.13472595 23.04865784 -8.13571167 22.36941528 C-8.13639105 20.97918604 -8.13455367 19.58895359 -8.13037109 18.19873047 C-8.12500228 16.06340486 -8.13033293 13.92828797 -8.13671875 11.79296875 C-8.13605826 10.44270787 -8.1347777 9.09244711 -8.1328125 7.7421875 C-8.13168457 6.50968262 -8.13055664 5.27717773 -8.12939453 4.00732422 C-7.88316624 -1.35859424 -4.70135912 0.02332023 0 0 Z " fill="#FCFCFC" transform="translate(57,34.8125)"/>
<path d="M0 0 C0.66 0.33 1.32 0.66 2 1 C2.04939662 4.95096978 2.08571755 8.9018203 2.10986328 12.85302734 C2.12488107 14.8591136 2.15028981 16.86511324 2.17578125 18.87109375 C2.18222656 20.12792969 2.18867187 21.38476562 2.1953125 22.6796875 C2.20578613 23.84226074 2.21625977 25.00483398 2.22705078 26.20263672 C2 29 2 29 0 31 C0 22.75 0 14.5 0 6 C-0.66 5.67 -1.32 5.34 -2 5 C-1.34 5 -0.68 5 0 5 C0 3.35 0 1.7 0 0 Z " fill="#EEEEEE" transform="translate(45,33)"/>
<path d="M0 0 C2.64 0 5.28 0 8 0 C8.625 1.875 8.625 1.875 9 4 C7 6 7 6 3.375 6.125 C2.26125 6.08375 1.1475 6.0425 0 6 C-0.33 5.34 -0.66 4.68 -1 4 C1.64 4 4.28 4 7 4 C7 3.34 7 2.68 7 2 C4.69 2 2.38 2 0 2 C0 1.34 0 0.68 0 0 Z " fill="#E9EBEA" transform="translate(56,79)"/>
<path d="M0 0 C0.99 0.33 1.98 0.66 3 1 C1.02 3.97 1.02 3.97 -1 7 C-2.32 6.34 -3.64 5.68 -5 5 C-3 2 -3 2 0 0 Z " fill="#F6F6F6" transform="translate(29,105)"/>
<path d="M0 0 C0.33 0.99 0.66 1.98 1 3 C3.31 3 5.62 3 8 3 C8 3.99 8 4.98 8 6 C5.36 5.67 2.72 5.34 0 5 C-0.5625 3.0625 -0.5625 3.0625 -1 1 C-0.67 0.67 -0.34 0.34 0 0 Z " fill="#EAEAEA" transform="translate(38,80)"/>
</svg>
