<svg width="374" height="374" viewBox="0 0 374 374" fill="none" xmlns="http://www.w3.org/2000/svg">
<g clip-path="url(#clip0_48_5500)">
<path fill-rule="evenodd" clip-rule="evenodd" d="M338.279 197.39L361.302 219.016C361.705 219.395 362.251 219.585 362.802 219.537L394.242 216.836C404.126 215.986 411.218 226.182 407.002 235.18L393.593 263.803C393.358 264.305 393.347 264.883 393.562 265.393L405.843 294.521C409.704 303.678 402.219 313.587 392.376 312.35L361.065 308.414C360.517 308.345 359.964 308.513 359.546 308.875L335.697 329.579C328.199 336.088 316.481 332.016 314.613 322.253L308.671 291.198C308.567 290.654 308.237 290.179 307.764 289.893L280.742 273.561C272.247 268.426 272.49 256.001 281.179 251.204L308.817 235.947C309.302 235.68 309.65 235.219 309.775 234.679L316.925 203.882C319.173 194.2 331.041 190.592 338.279 197.39ZM334.541 201.386C330.375 197.472 323.542 199.549 322.248 205.123L315.099 235.92C314.622 237.973 313.297 239.727 311.455 240.744L283.816 256.001C278.814 258.762 278.675 265.915 283.565 268.871L310.586 285.204C312.388 286.292 313.643 288.097 314.039 290.167L319.98 321.222C321.056 326.843 327.802 329.186 332.118 325.44L355.968 304.736C357.558 303.356 359.658 302.717 361.745 302.98L393.056 306.916C398.722 307.628 403.031 301.924 400.809 296.652L388.527 267.524C387.708 265.582 387.751 263.384 388.645 261.475L402.055 232.853C404.482 227.673 400.399 221.803 394.709 222.292L363.269 224.994C361.173 225.174 359.099 224.453 357.564 223.012L334.541 201.386Z" fill="#1A2432"/>
<path fill-rule="evenodd" clip-rule="evenodd" d="M-35.7172 197.39L-12.6943 219.016C-12.2908 219.395 -11.7455 219.585 -11.1945 219.537L20.2456 216.836C30.1296 215.986 37.2218 226.182 33.0062 235.18L19.5967 263.803C19.3617 264.305 19.3504 264.883 19.5657 265.393L31.847 294.521C35.7079 303.678 28.2231 313.587 18.3798 312.35L-12.9307 308.414C-13.4795 308.345 -14.0316 308.513 -14.4496 308.875L-38.2995 329.579C-45.7973 336.088 -57.5154 332.016 -59.3833 322.253L-65.3247 291.198C-65.4289 290.654 -65.7589 290.179 -66.2324 289.893L-93.2538 273.561C-101.749 268.426 -101.506 256.001 -92.8171 251.204L-65.1786 235.947C-64.6942 235.68 -64.346 235.219 -64.2207 234.679L-57.0709 203.882C-54.8232 194.2 -42.9551 190.592 -35.7172 197.39ZM-39.4549 201.386C-43.6215 197.472 -50.4537 199.549 -51.7476 205.123L-58.8973 235.92C-59.374 237.973 -60.6986 239.727 -62.5412 240.744L-90.1797 256.001C-95.1816 258.762 -95.3213 265.915 -90.4311 268.871L-63.4097 285.204C-61.6083 286.292 -60.3532 288.097 -59.9571 290.167L-54.0156 321.222C-52.9403 326.843 -46.1945 329.186 -41.8782 325.44L-18.0284 304.736C-16.4384 303.356 -14.3381 302.717 -12.2507 302.98L19.0598 306.916C24.7263 307.628 29.0351 301.924 26.8125 296.652L14.5312 267.524C13.7124 265.582 13.7553 263.384 14.6493 261.475L28.0588 232.853C30.4856 227.673 26.4028 221.803 20.7129 222.292L-10.7272 224.994C-12.8233 225.174 -14.8971 224.453 -16.432 223.012L-39.4549 201.386Z" fill="#1A2432"/>
<path fill-rule="evenodd" clip-rule="evenodd" d="M108.13 268.653L109.195 283.33C109.214 283.588 109.341 283.825 109.545 283.982L121.172 292.978C124.828 295.807 124.041 301.539 119.756 303.292L106.128 308.87C105.889 308.968 105.703 309.162 105.615 309.405L100.632 323.263C99.0653 327.62 93.373 328.654 90.3901 325.124L80.9017 313.894C80.7354 313.697 80.4932 313.58 80.2354 313.572L65.528 313.141C60.9044 313.006 58.1734 307.912 60.6143 303.977L68.3786 291.459C68.5147 291.239 68.5513 290.973 68.4793 290.725L64.373 276.6C63.082 272.16 67.0865 267.978 71.578 269.076L85.8649 272.57C86.1154 272.631 86.3802 272.583 86.5935 272.437L98.763 264.139C102.589 261.53 107.795 264.039 108.13 268.653ZM105.588 268.843C105.395 266.187 102.398 264.742 100.196 266.244L88.0262 274.543C87.2148 275.096 86.2075 275.279 85.255 275.046L70.968 271.552C68.3824 270.92 66.0771 273.328 66.8203 275.884L70.9266 290.009C71.2004 290.95 71.0611 291.965 70.5435 292.799L62.7792 305.317C61.374 307.583 62.9462 310.515 65.6079 310.593L80.3153 311.024C81.2958 311.053 82.2171 311.497 82.8497 312.246L92.338 323.476C94.0552 325.508 97.3321 324.913 98.234 322.405L103.217 308.547C103.55 307.623 104.258 306.883 105.167 306.511L118.795 300.933C121.262 299.924 121.715 296.624 119.61 294.996L107.983 286C107.208 285.4 106.724 284.499 106.653 283.52L105.588 268.843Z" fill="#1A2432"/>
<path fill-rule="evenodd" clip-rule="evenodd" d="M240.497 38.276L255.297 51.4801C255.556 51.7115 255.901 51.8217 256.246 51.7831L275.938 49.5814C282.129 48.8892 286.745 55.175 284.243 60.8912L276.286 79.0735C276.147 79.3921 276.149 79.7552 276.293 80.0722L284.47 98.1583C287.041 103.844 282.502 110.185 276.304 109.566L256.587 107.599C256.241 107.565 255.897 107.679 255.641 107.914L241.003 121.293C236.401 125.499 228.98 123.132 227.651 117.034L223.421 97.6361C223.347 97.2961 223.133 97.0036 222.831 96.8316L205.606 87.0144C200.191 83.9281 200.144 76.1247 205.521 72.9741L222.624 62.9524C222.924 62.7768 223.135 62.4818 223.205 62.141L227.197 42.6941C228.453 36.5805 235.844 34.1249 240.497 38.276ZM238.215 40.8441C235.537 38.4545 231.281 39.8681 230.559 43.3875L226.567 62.8344C226.3 64.1309 225.497 65.2529 224.357 65.9211L207.254 75.9428C204.158 77.7565 204.186 82.2487 207.303 84.0254L224.527 93.8425C225.675 94.497 226.492 95.6094 226.774 96.9026L231.003 116.301C231.769 119.811 236.041 121.174 238.69 118.752L253.328 105.373C254.303 104.481 255.612 104.046 256.926 104.177L276.643 106.144C280.212 106.5 282.824 102.85 281.344 99.5771L273.167 81.491C272.621 80.2852 272.613 78.9042 273.144 77.692L281.1 59.5097C282.54 56.2191 279.883 52.6006 276.319 52.999L256.627 55.2007C255.315 55.3475 254.001 54.9286 253.015 54.0483L238.215 40.8441Z" fill="#1A2432"/>
<path fill-rule="evenodd" clip-rule="evenodd" d="M50.9062 42.5998C44.5265 37.5829 39.4942 35.9053 36.6313 35.3516C34.9629 35.0289 33.373 35.8113 32.2605 37.095L23.4981 47.2056C19.4476 45.9694 15.1832 45.2004 10.7637 44.9643C-18.559 43.3976 -43.599 65.8831 -45.1646 95.1869C-46.7303 124.491 -24.2288 149.516 5.09396 151.083C34.4167 152.65 59.4567 130.164 61.0223 100.86C61.5605 90.7872 59.2548 81.2195 54.8058 72.9365C54.8698 73.0556 54.9333 73.175 54.9964 73.2946L63.177 63.8554C64.2896 62.5717 64.8375 60.8875 64.2797 59.2832C63.3765 56.6856 61.2065 52.3202 56.0246 47.1358C57.0829 43.1122 61.004 39.9908 65.956 39.3718C71.0075 38.7403 76.7862 40.8378 80.2835 47.4762C82.7722 52.2001 82.4313 55.304 81.2512 57.846C80.118 60.2874 78.1891 62.3612 75.8504 64.8755L75.8495 64.8765L75.849 64.877C75.3502 65.4133 74.8327 65.9696 74.3004 66.5538C71.5036 69.6231 68.3494 73.4552 67.7063 78.5885C67.0484 83.8389 69.0843 89.604 74.5266 96.4662C75.6257 97.852 77.6407 98.0851 79.0274 96.9868C80.414 95.8885 80.6471 93.8748 79.5481 92.4889C74.6366 86.296 73.7079 82.2285 74.0642 79.3845C74.4352 76.4232 76.2739 73.8989 79.0381 70.8654C79.4438 70.4201 79.8766 69.9582 80.3251 69.4794C82.6753 66.9703 85.4588 63.9987 87.0638 60.5411C89.1704 56.0031 89.2736 50.7959 85.9532 44.4934C81.1579 35.3911 72.7396 32.0704 65.1603 33.0178C59.2364 33.7583 53.5709 37.1951 50.9062 42.5998ZM51.2225 67.1784C51.2225 67.1784 51.2226 67.1785 51.2225 67.1784L57.2609 60.2111C56.2081 57.9405 53.831 54.1157 48.5359 49.5324C43.2407 44.949 39.1134 43.1439 36.7144 42.4266L30.3131 49.8128C30.2206 49.7699 30.1279 49.7272 30.0351 49.6848C38.5697 53.5861 45.8561 59.6663 51.2225 67.1784ZM5.45969 144.238C30.9995 145.603 52.8092 126.018 54.1729 100.494C55.5366 74.9709 35.9379 53.1739 10.398 51.8093C-15.1418 50.4448 -36.9515 70.0294 -38.3152 95.5529C-39.6788 121.076 -20.0802 142.873 5.45969 144.238Z" fill="#1A2432"/>
<path fill-rule="evenodd" clip-rule="evenodd" d="M423.906 42.5998C417.526 37.5829 412.494 35.9053 409.631 35.3516C407.963 35.0289 406.373 35.8113 405.261 37.095L396.498 47.2056C392.448 45.9694 388.183 45.2004 383.764 44.9643C354.441 43.3976 329.401 65.8831 327.835 95.1869C326.27 124.491 348.771 149.516 378.094 151.083C407.417 152.65 432.457 130.164 434.022 100.86C434.561 90.7872 432.255 81.2195 427.806 72.9365C427.87 73.0556 427.933 73.175 427.996 73.2946L436.177 63.8554C437.29 62.5717 437.837 60.8875 437.28 59.2832C436.377 56.6856 434.207 52.3202 429.025 47.1358C430.083 43.1122 434.004 39.9908 438.956 39.3718C444.008 38.7403 449.786 40.8378 453.284 47.4762C455.772 52.2001 455.431 55.304 454.251 57.846C453.118 60.2874 451.189 62.3612 448.85 64.8755L448.849 64.8765L448.849 64.877C448.35 65.4133 447.833 65.9696 447.3 66.5538C444.504 69.6231 441.349 73.4552 440.706 78.5885C440.048 83.8389 442.084 89.604 447.527 96.4662C448.626 97.852 450.641 98.0851 452.027 96.9868C453.414 95.8885 453.647 93.8748 452.548 92.4889C447.637 86.296 446.708 82.2285 447.064 79.3845C447.435 76.4232 449.274 73.8989 452.038 70.8654C452.444 70.4201 452.877 69.9582 453.325 69.4794C455.675 66.9703 458.459 63.9987 460.064 60.5411C462.17 56.0031 462.274 50.7959 458.953 44.4934C454.158 35.3911 445.74 32.0704 438.16 33.0178C432.236 33.7583 426.571 37.1951 423.906 42.5998ZM424.223 67.1784C424.223 67.1784 424.223 67.1785 424.223 67.1784L430.261 60.2111C429.208 57.9405 426.831 54.1157 421.536 49.5324C416.241 44.949 412.113 43.1439 409.714 42.4266L403.313 49.8128C403.221 49.7699 403.128 49.7272 403.035 49.6848C411.57 53.5861 418.856 59.6663 424.223 67.1784ZM378.46 144.238C404 145.603 425.809 126.018 427.173 100.494C428.537 74.9709 408.938 53.1739 383.398 51.8093C357.858 50.4448 336.049 70.0294 334.685 95.5529C333.321 121.076 352.92 142.873 378.46 144.238Z" fill="#1A2432"/>
<path fill-rule="evenodd" clip-rule="evenodd" d="M220.515 314.122C225.171 312.348 228.427 312.286 230.207 312.485C231.243 312.601 232.032 313.35 232.449 314.306L235.735 321.834C238.335 321.851 240.974 322.18 243.608 322.85C261.079 327.296 271.64 345.054 267.197 362.514C262.754 379.973 244.989 390.523 227.519 386.078C210.048 381.632 199.486 363.874 203.929 346.414C205.456 340.412 208.558 335.227 212.68 331.187C212.621 331.245 212.562 331.303 212.503 331.362L209.436 324.334C209.018 323.378 209.005 322.29 209.626 321.452C210.63 320.095 212.7 317.934 216.686 315.843C216.801 313.292 215.074 310.745 212.286 309.477C209.441 308.183 205.671 308.355 202.407 311.605C200.084 313.919 199.716 315.8 199.943 317.506C200.16 319.144 200.911 320.712 201.822 322.613L201.822 322.614L201.822 322.614C202.017 323.02 202.218 323.44 202.423 323.88C203.501 326.191 204.648 329.013 204.086 332.139C203.511 335.337 201.264 338.343 196.819 341.369C195.921 341.98 194.698 341.748 194.086 340.851C193.474 339.953 193.706 338.73 194.604 338.119C198.615 335.388 199.903 333.175 200.215 331.443C200.539 329.639 199.923 327.824 198.858 325.54C198.702 325.205 198.533 324.855 198.357 324.493C197.439 322.592 196.351 320.342 196.043 318.022C195.639 314.977 196.531 311.906 199.63 308.82C204.105 304.363 209.646 303.957 213.914 305.899C217.25 307.416 219.942 310.467 220.515 314.122ZM215.834 328.468C215.834 328.468 215.833 328.468 215.834 328.468L213.569 323.28C214.602 322.142 216.694 320.335 220.636 318.618C224.578 316.9 227.327 316.598 228.864 316.616L231.264 322.116C231.326 322.107 231.388 322.099 231.45 322.091C225.735 322.817 220.353 325.047 215.834 328.468ZM228.556 381.999C213.339 378.127 204.14 362.66 208.01 347.453C211.88 332.245 227.353 323.056 242.57 326.929C257.787 330.801 266.986 346.268 263.116 361.475C259.246 376.682 243.773 385.871 228.556 381.999Z" fill="#1A2432"/>
<path fill-rule="evenodd" clip-rule="evenodd" d="M220.515 -59.8785C225.171 -61.6516 228.427 -61.7142 230.207 -61.515C231.243 -61.399 232.032 -60.6496 232.449 -59.6938L235.735 -52.1657C238.335 -52.1492 240.974 -51.8198 243.608 -51.1498C261.079 -46.704 271.64 -28.9461 267.197 -11.4864C262.754 5.97337 244.989 16.5233 227.519 12.0776C210.048 7.63183 199.486 -10.1261 203.929 -27.5858C205.456 -33.5876 208.558 -38.7729 212.68 -42.8133C212.621 -42.7552 212.562 -42.6968 212.503 -42.6382L209.436 -49.6664C209.018 -50.6223 209.005 -51.7095 209.626 -52.5477C210.63 -53.9048 212.7 -56.0661 216.686 -58.1565C216.801 -60.7081 215.074 -63.2546 212.286 -64.5233C209.441 -65.8174 205.671 -65.6452 202.407 -62.3946C200.084 -60.0814 199.716 -58.2001 199.943 -56.4945C200.16 -54.8564 200.911 -53.2882 201.822 -51.387L201.822 -51.3862L201.822 -51.3858C202.017 -50.9803 202.218 -50.5596 202.423 -50.1198C203.501 -47.8095 204.648 -44.9867 204.086 -41.8608C203.511 -38.6635 201.264 -35.6573 196.819 -32.6313C195.921 -32.0202 194.698 -32.2522 194.086 -33.1495C193.474 -34.0468 193.706 -35.2696 194.604 -35.8807C198.615 -38.6116 199.903 -40.8254 200.215 -42.5573C200.539 -44.3606 199.923 -46.1763 198.858 -48.4597C198.702 -48.7949 198.533 -49.1448 198.357 -49.5074C197.439 -51.4077 196.351 -53.6584 196.043 -55.9783C195.639 -59.0231 196.531 -62.0936 199.63 -65.1798C204.105 -69.6369 209.646 -70.0431 213.914 -68.1014C217.25 -66.5838 219.942 -63.5333 220.515 -59.8785ZM215.834 -45.5322C215.834 -45.5323 215.833 -45.5322 215.834 -45.5322L213.569 -50.72C214.602 -51.8581 216.694 -53.6647 220.636 -55.3821C224.578 -57.0995 227.327 -57.4025 228.864 -57.384L231.264 -51.8844C231.326 -51.8926 231.388 -51.9007 231.45 -51.9086C225.735 -51.1834 220.353 -48.953 215.834 -45.5322ZM228.556 7.99917C213.339 4.12696 204.14 -11.34 208.01 -26.5473C211.88 -41.7546 227.353 -50.9436 242.57 -47.0714C257.787 -43.1992 266.986 -27.7322 263.116 -12.5249C259.246 2.68245 243.773 11.8714 228.556 7.99917Z" fill="#1A2432"/>
<path fill-rule="evenodd" clip-rule="evenodd" d="M121.078 -23.4295C119.29 -24.656 117.069 -22.6352 118.121 -20.7397L128.696 -1.68577C129.339 -0.527385 128.733 0.927661 127.458 1.2872L112.8 5.42025C110.902 5.95558 110.776 8.59924 112.616 9.31159L127.031 14.8941C128.196 15.3451 128.692 16.7228 128.081 17.8125L120.527 31.2995C119.563 33.0206 121.344 34.9785 123.148 34.1815L137.289 27.9357C138.431 27.431 139.756 28.0547 140.095 29.2568L144.29 44.1352C144.826 46.0338 147.469 46.159 148.182 44.3195L153.681 30.1177C154.16 28.8823 155.666 28.4165 156.758 29.166L174.727 41.4948C176.515 42.7213 178.737 40.7005 177.685 38.805L167.109 19.7511C166.466 18.5927 167.072 17.1376 168.347 16.7781L183.005 12.645C184.904 12.1097 185.029 9.46605 183.19 8.75369L168.774 3.17122C167.609 2.72018 167.114 1.34251 167.724 0.252812L175.278 -13.2343C176.242 -14.9553 174.461 -16.9132 172.657 -16.1162L158.516 -9.87037C157.374 -9.36574 156.049 -9.98939 155.71 -11.1915L151.515 -26.0699C150.98 -27.9685 148.336 -28.0937 147.624 -26.2542L142.124 -12.0524C141.646 -10.817 140.14 -10.3512 139.047 -11.1007L121.078 -23.4295ZM125.337 -17.2793C124.429 -17.9771 123.233 -16.8893 123.841 -15.9193L135.188 2.15783C135.57 2.76666 135.224 3.56959 134.519 3.71049L119.591 6.69453C118.542 6.90412 118.473 8.37692 119.497 8.68466L134.174 13.0954C134.834 13.294 135.115 14.0744 134.732 14.6484L126.23 27.3991C125.637 28.2887 126.629 29.3794 127.571 28.8729L141.068 21.6136C141.675 21.2868 142.426 21.6401 142.561 22.3165L145.565 37.3448C145.774 38.3933 147.247 38.4631 147.555 37.439L151.939 22.8518C152.145 22.1655 152.973 21.8963 153.544 22.3301L170.048 34.8804C170.955 35.5701 172.143 34.4897 171.542 33.5217L160.608 15.9046C160.23 15.2957 160.576 14.4968 161.279 14.3563L176.215 11.3707C177.264 11.1611 177.333 9.6883 176.309 9.38056L161.632 4.9698C160.972 4.77128 160.691 3.99078 161.074 3.41687L169.576 -9.33384C170.169 -10.2235 169.177 -11.3142 168.235 -10.8077L154.738 -3.54833C154.131 -3.22158 153.38 -3.5749 153.245 -4.25133L150.241 -19.2796C150.031 -20.3281 148.559 -20.3978 148.251 -19.3738L143.869 -4.79426C143.663 -4.10585 142.831 -3.83763 142.261 -4.27559L125.337 -17.2793Z" fill="#1A2432"/>
<path fill-rule="evenodd" clip-rule="evenodd" d="M121.079 350.57C119.291 349.343 117.07 351.364 118.122 353.26L128.697 372.314C129.34 373.472 128.734 374.927 127.459 375.287L112.801 379.42C110.903 379.955 110.777 382.599 112.617 383.311L127.032 388.894C128.197 389.345 128.693 390.722 128.082 391.812L120.528 405.299C119.564 407.02 121.345 408.978 123.149 408.181L137.29 401.935C138.432 401.431 139.757 402.054 140.096 403.256L144.291 418.135C144.827 420.033 147.47 420.158 148.183 418.319L153.682 404.117C154.161 402.882 155.667 402.416 156.759 403.166L174.728 415.494C176.516 416.721 178.738 414.7 177.686 412.805L167.11 393.751C166.467 392.592 167.073 391.137 168.348 390.778L183.006 386.645C184.905 386.109 185.03 383.466 183.191 382.753L168.775 377.171C167.61 376.72 167.115 375.342 167.725 374.252L175.279 360.765C176.243 359.044 174.462 357.086 172.658 357.883L158.517 364.129C157.375 364.634 156.05 364.01 155.711 362.808L151.516 347.93C150.981 346.031 148.337 345.906 147.625 347.745L142.125 361.947C141.647 363.183 140.141 363.648 139.048 362.899L121.079 350.57ZM125.338 356.72C124.429 356.022 123.234 357.11 123.842 358.08L135.189 376.157C135.571 376.766 135.225 377.569 134.52 377.71L119.592 380.694C118.543 380.904 118.474 382.376 119.498 382.684L134.175 387.095C134.835 387.293 135.116 388.074 134.733 388.648L126.231 401.399C125.638 402.288 126.63 403.379 127.572 402.872L141.069 395.613C141.676 395.286 142.427 395.64 142.562 396.316L145.566 411.344C145.775 412.393 147.248 412.463 147.556 411.439L151.94 396.851C152.146 396.165 152.974 395.896 153.545 396.33L170.049 408.88C170.956 409.57 172.144 408.489 171.543 407.521L160.609 389.904C160.231 389.295 160.577 388.496 161.28 388.356L176.216 385.37C177.265 385.161 177.334 383.688 176.31 383.38L161.633 378.969C160.973 378.771 160.692 377.99 161.075 377.416L169.577 364.666C170.17 363.776 169.178 362.685 168.236 363.192L154.739 370.451C154.132 370.778 153.381 370.425 153.246 369.748L150.242 354.72C150.032 353.671 148.56 353.602 148.252 354.626L143.87 369.205C143.664 369.894 142.832 370.162 142.262 369.724L125.338 356.72Z" fill="#1A2432"/>
<path fill-rule="evenodd" clip-rule="evenodd" d="M239.394 189.074C240.644 186.423 237.466 183.897 235.165 185.711L212.034 203.946C210.627 205.055 208.555 204.561 207.799 202.938L199.111 184.276C197.986 181.859 194.431 182.264 193.879 184.873L189.553 205.314C189.203 206.966 187.472 207.926 185.886 207.347L166.256 200.189C163.751 199.275 161.525 202.075 162.979 204.31L174.374 221.824C175.294 223.239 174.749 225.141 173.219 225.854L154.277 234.673C151.859 235.798 152.265 239.352 154.873 239.904L175.012 244.167C176.764 244.538 177.711 246.446 176.948 248.066L164.39 274.709C163.14 277.36 166.317 279.887 168.619 278.073L191.75 259.837C193.156 258.729 195.229 259.222 195.985 260.846L204.673 279.507C205.798 281.924 209.352 281.519 209.904 278.91L214.231 258.469C214.581 256.817 216.312 255.858 217.898 256.436L237.527 263.594C240.032 264.508 242.259 261.708 240.805 259.473L229.41 241.959C228.489 240.544 229.035 238.642 230.565 237.929L249.507 229.111C251.924 227.985 251.519 224.431 248.911 223.879L228.772 219.616C227.02 219.246 226.073 217.337 226.836 215.718L239.394 189.074ZM232.111 196.087C232.845 194.725 231.135 193.365 229.973 194.387L208.311 213.439C207.582 214.08 206.435 213.793 206.095 212.883L198.881 193.612C198.375 192.259 196.395 192.484 196.206 193.917L193.499 214.454C193.377 215.379 192.396 215.922 191.548 215.536L172.695 206.953C171.38 206.354 170.139 207.914 171.019 209.061L183.627 225.497C184.194 226.236 183.885 227.314 183.012 227.641L163.612 234.903C162.259 235.409 162.484 237.39 163.917 237.578L184.328 240.269C185.289 240.395 185.827 241.442 185.372 242.297L172.201 267.035C171.478 268.394 173.176 269.745 174.338 268.734L195.474 250.331C196.205 249.695 197.346 249.984 197.685 250.891L204.903 270.172C205.409 271.525 207.39 271.3 207.578 269.867L210.285 249.33C210.407 248.405 211.388 247.862 212.236 248.248L231.089 256.831C232.404 257.43 233.645 255.87 232.765 254.723L220.157 238.287C219.59 237.548 219.899 236.47 220.772 236.143L240.172 228.881C241.525 228.375 241.3 226.394 239.867 226.206L219.466 223.517C218.503 223.39 217.965 222.338 218.426 221.483L232.111 196.087Z" fill="#1A2432"/>
<circle cx="89.5" cy="195.5" r="17.5" stroke="#1A2432" stroke-width="4"/>
<circle cx="154" cy="129" r="34" stroke="#1A2432" stroke-width="4"/>
<circle cx="305" cy="158" r="18" stroke="#1A2432" stroke-width="4"/>
<circle cx="374" cy="377" r="18" stroke="#1A2432" stroke-width="4"/>
<circle cx="374" cy="3" r="18" stroke="#1A2432" stroke-width="4"/>
<circle cx="1" cy="3" r="18" stroke="#1A2432" stroke-width="4"/>
<circle cx="1" cy="377" r="18" stroke="#1A2432" stroke-width="4"/>
<circle cx="241.5" cy="149.5" r="12.5" stroke="#1A2432" stroke-width="4"/>
</g>
<defs>
<clipPath id="clip0_48_5500">
<rect width="374" height="374" fill="white"/>
</clipPath>
</defs>
</svg>
